<svg xmlns="http://www.w3.org/2000/svg" viewBox="0 0 900 600" role="img" aria-label="Generated garden scene 1">
  <defs>
    <linearGradient id="sky" x1="0" y1="0" x2="0" y2="1">
      <stop offset="0%" stop-color="#a6d8ff"/>
      <stop offset="100%" stop-color="#dff4ff"/>
    </linearGradient>
    <linearGradient id="ground" x1="0" y1="0" x2="0" y2="1">
      <stop offset="0%" stop-color="#5aa06a"/>
      <stop offset="100%" stop-color="#2f6b44"/>
    </linearGradient>
  </defs>
  <rect width="900" height="600" fill="url(#sky)"/>
  <circle cx="760" cy="120" r="52" fill="#ffd978" opacity="0.95"/>
  <rect y="360" width="900" height="240" fill="url(#ground)"/>
  <ellipse cx="220" cy="370" rx="190" ry="70" fill="#75ba78" opacity="0.8"/>
  <ellipse cx="680" cy="380" rx="210" ry="65" fill="#6bb576" opacity="0.8"/>
  <path d="M120 470 C150 390 170 390 200 470" fill="none" stroke="#1f5132" stroke-width="16" stroke-linecap="round"/>
  <path d="M245 470 C275 390 300 385 330 470" fill="none" stroke="#205a36" stroke-width="14" stroke-linecap="round"/>
  <path d="M520 500 C545 410 565 410 590 500" fill="none" stroke="#245f3a" stroke-width="16" stroke-linecap="round"/>
  <path d="M650 495 C670 420 700 420 720 495" fill="none" stroke="#225a36" stroke-width="14" stroke-linecap="round"/>
  <circle cx="198" cy="422" r="22" fill="#e7ffb8"/>
  <circle cx="329" cy="416" r="19" fill="#d8ff9a"/>
  <circle cx="589" cy="438" r="24" fill="#d2ff93"/>
  <circle cx="720" cy="444" r="20" fill="#e2ffae"/>
</svg>
