<svg xmlns="http://www.w3.org/2000/svg" viewBox="0 0 900 600" role="img" aria-label="Generated garden scene 5">
  <rect width="900" height="600" fill="#d7ecff"/>
  <rect y="350" width="900" height="250" fill="#4a8d62"/>
  <path d="M0 370 C120 330 240 390 360 355 C500 315 640 390 760 350 C820 330 860 335 900 350 L900 600 L0 600 Z" fill="#5d9f72"/>
  <rect x="110" y="275" width="680" height="185" rx="20" fill="#f0f7f2" opacity="0.72" stroke="#95b8a1" stroke-width="6"/>
  <line x1="200" y1="285" x2="200" y2="450" stroke="#9cc1ab" stroke-width="4"/>
  <line x1="290" y1="285" x2="290" y2="450" stroke="#9cc1ab" stroke-width="4"/>
  <line x1="380" y1="285" x2="380" y2="450" stroke="#9cc1ab" stroke-width="4"/>
  <line x1="470" y1="285" x2="470" y2="450" stroke="#9cc1ab" stroke-width="4"/>
  <line x1="560" y1="285" x2="560" y2="450" stroke="#9cc1ab" stroke-width="4"/>
  <line x1="650" y1="285" x2="650" y2="450" stroke="#9cc1ab" stroke-width="4"/>
  <line x1="740" y1="285" x2="740" y2="450" stroke="#9cc1ab" stroke-width="4"/>
  <path d="M185 450 C195 400 215 400 225 450" fill="none" stroke="#2b6a45" stroke-width="10" stroke-linecap="round"/>
  <path d="M350 450 C360 392 380 392 390 450" fill="none" stroke="#27613f" stroke-width="10" stroke-linecap="round"/>
  <path d="M515 450 C525 398 545 398 555 450" fill="none" stroke="#2a6945" stroke-width="10" stroke-linecap="round"/>
  <path d="M680 450 C690 394 710 394 720 450" fill="none" stroke="#275f3f" stroke-width="10" stroke-linecap="round"/>
  <circle cx="225" cy="420" r="16" fill="#8ad073"/>
  <circle cx="390" cy="410" r="18" fill="#95d983"/>
  <circle cx="555" cy="417" r="17" fill="#84c96f"/>
  <circle cx="720" cy="412" r="18" fill="#8fd47a"/>
</svg>
