<svg xmlns="http://www.w3.org/2000/svg" viewBox="0 0 900 600" role="img" aria-label="Generated garden scene 2">
  <defs>
    <linearGradient id="twilight" x1="0" y1="0" x2="0" y2="1">
      <stop offset="0%" stop-color="#f3c8a4"/>
      <stop offset="100%" stop-color="#ffd9bc"/>
    </linearGradient>
  </defs>
  <rect width="900" height="600" fill="url(#twilight)"/>
  <rect y="340" width="900" height="260" fill="#366b4d"/>
  <path d="M0 370 C120 320 220 410 340 360 C470 300 560 390 700 345 C790 315 850 325 900 350 L900 600 L0 600 Z" fill="#4b865f"/>
  <rect x="385" y="290" width="130" height="180" rx="10" fill="#c6864f"/>
  <rect x="365" y="265" width="170" height="30" rx="8" fill="#9f673d"/>
  <circle cx="408" cy="254" r="28" fill="#7fbe6c"/>
  <circle cx="450" cy="240" r="36" fill="#6db15d"/>
  <circle cx="495" cy="252" r="30" fill="#79c36b"/>
  <path d="M90 520 C110 440 140 445 160 520" fill="none" stroke="#1f5738" stroke-width="14" stroke-linecap="round"/>
  <path d="M180 530 C200 455 230 450 250 530" fill="none" stroke="#215f3f" stroke-width="14" stroke-linecap="round"/>
  <path d="M700 530 C720 455 745 455 765 530" fill="none" stroke="#215c3d" stroke-width="14" stroke-linecap="round"/>
  <path d="M780 520 C800 445 830 445 850 520" fill="none" stroke="#1f5437" stroke-width="14" stroke-linecap="round"/>
  <circle cx="160" cy="475" r="16" fill="#ffef92"/>
  <circle cx="250" cy="486" r="14" fill="#ffe57b"/>
  <circle cx="765" cy="483" r="15" fill="#ffef9f"/>
  <circle cx="850" cy="474" r="13" fill="#ffe98f"/>
</svg>
