<svg xmlns="http://www.w3.org/2000/svg" viewBox="0 0 24 24" fill="none" stroke="#fff" stroke-width="2" stroke-linecap="round" stroke-linejoin="round">
	<path d="M7 6 4.5 3.5 4 8" />
	<path d="M17 6l2.5-2.5L20 8" />
	<path d="M6.5 9.5C7 6.5 9.1 5 12 5s5 1.5 5.5 4.5" />
	<path d="M6.5 9.5C5.6 10.8 5 12.4 5 14a7 7 0 0 0 14 0c0-1.6-.6-3.2-1.5-4.5" />
	<path d="M9.5 13h.01" />
	<path d="M14.5 13h.01" />
	<path d="M12 14.5v1.2" />
	<path d="M12 15.7l-1.2 1" />
	<path d="M12 15.7l1.2 1" />
	<path d="M8.5 16.2 6.8 15.8" />
	<path d="M8.5 17.3 6.8 17.3" />
	<path d="M15.5 16.2 17.2 15.8" />
	<path d="M15.5 17.3 17.2 17.3" />
</svg>
